<?xml version="1.0" standalone="no"?>
<!DOCTYPE svg PUBLIC "-//W3C//DTD SVG 20010904//EN"
 "http://www.w3.org/TR/2001/REC-SVG-20010904/DTD/svg10.dtd">
<svg version="1.0" xmlns="http://www.w3.org/2000/svg"
 width="1280pt" height="640pt" viewBox="0 0 1280 320"
 preserveAspectRatio="xMaxYMid meet">
<metadata>
Created by potrace 1.15, written by Peter Selinger 2001-2017
</metadata>
<g transform="translate(0, 640) scale(0.100000,-0.100000)"
fill="#EAFF03" stroke="none">
<path d="M1181 5893 c-69 -34 -115 -122 -211 -398 -34 -99 -75 -209 -92 -243
-45 -96 -43 -95 -393 -93 -303 2 -370 -5 -431 -45 -55 -36 -68 -103 -33 -169
32 -60 90 -116 244 -233 299 -226 319 -248 306 -332 -4 -25 -45 -155 -91 -289
-60 -178 -84 -263 -88 -311 -8 -122 30 -180 119 -180 71 0 145 32 266 115 279
192 348 236 385 247 37 11 45 10 92 -15 48 -25 85 -52 331 -239 203 -154 333
-180 386 -76 38 74 23 176 -70 471 -50 161 -75 271 -67 301 9 38 79 97 265
226 206 143 274 199 307 255 53 91 16 179 -89 210 -64 19 -256 34 -443 35 -78
0 -166 4 -195 10 -76 14 -99 44 -148 199 -22 69 -61 192 -86 272 -55 176 -97
248 -158 278 -52 25 -62 25 -106 4z"/>
<path d="M3785 5901 c-30 -13 -70 -53 -97 -97 -34 -55 -62 -124 -130 -319 -32
-93 -72 -198 -88 -233 -44 -95 -40 -94 -420 -96 -343 -1 -361 -4 -420 -59 -43
-41 -48 -85 -16 -151 31 -64 86 -117 257 -246 196 -148 257 -199 280 -237 20
-32 21 -39 9 -96 -6 -34 -41 -143 -76 -241 -105 -292 -123 -388 -88 -462 24
-49 64 -68 136 -61 74 7 142 44 358 195 177 124 259 172 294 172 36 0 113 -50
306 -196 214 -162 289 -204 365 -204 85 0 125 50 125 158 0 71 -16 136 -91
386 -35 116 -60 221 -62 253 -2 55 -2 55 54 107 30 28 122 97 205 153 194 134
258 184 294 235 42 58 52 101 34 147 -34 86 -123 109 -464 118 -290 7 -335 15
-366 61 -26 39 -59 130 -114 317 -70 238 -117 341 -174 378 -30 20 -85 29
-111 18z"/>
<path d="M6374 5896 c-76 -34 -127 -128 -224 -411 -61 -180 -98 -265 -127
-297 -23 -26 -79 -30 -401 -32 -263 -1 -302 -3 -337 -19 -131 -59 -134 -162
-7 -285 32 -32 118 -102 192 -158 269 -201 297 -232 286 -308 -4 -23 -45 -153
-91 -291 -95 -280 -108 -348 -81 -420 21 -55 55 -75 124 -75 69 0 166 52 372
196 162 114 264 174 295 174 27 0 107 -46 195 -112 47 -35 131 -99 187 -142
140 -106 219 -146 287 -146 61 0 96 21 116 70 21 51 7 188 -34 325 -93 308
-106 359 -106 410 0 51 2 55 53 101 30 27 130 101 222 164 193 131 295 224
313 285 27 95 -32 160 -169 185 -30 6 -174 14 -319 19 -316 10 -328 13 -365
93 -13 29 -54 152 -90 273 -37 123 -82 249 -102 288 -55 104 -121 144 -189
113z"/>
<path d="M8965 5896 c-76 -33 -122 -116 -219 -397 -99 -287 -118 -323 -182
-335 -18 -3 -172 -7 -341 -8 -307 -1 -308 -1 -357 -26 -87 -44 -110 -103 -71
-184 28 -59 101 -126 302 -278 206 -157 253 -203 253 -249 0 -47 -24 -131 -94
-326 -106 -295 -117 -394 -51 -460 29 -29 39 -33 87 -33 84 0 167 45 448 245
130 92 204 128 245 121 37 -7 111 -57 325 -220 178 -135 255 -176 327 -176 54
0 86 17 107 58 38 77 27 159 -61 447 -37 121 -66 239 -70 278 l-6 68 49 47
c27 26 128 101 224 167 249 171 330 254 330 336 0 64 -72 119 -181 139 -30 6
-174 14 -319 19 -316 10 -325 12 -363 93 -14 30 -48 131 -76 224 -99 338 -137
417 -218 450 -39 17 -50 17 -88 0z"/>
<path d="M11555 5896 c-74 -32 -119 -114 -220 -406 -96 -276 -117 -314 -183
-326 -18 -4 -172 -7 -340 -8 -276 -1 -311 -3 -350 -20 -87 -38 -115 -112 -73
-194 28 -54 135 -152 312 -285 86 -64 176 -138 199 -163 42 -46 43 -47 37
-104 -4 -32 -38 -147 -76 -256 -85 -246 -87 -254 -101 -333 -22 -127 24 -201
125 -201 72 0 170 51 375 194 169 119 265 176 297 176 30 0 104 -42 196 -112
256 -194 302 -227 354 -253 35 -18 77 -30 113 -33 49 -4 60 -1 87 22 21 18 35
42 43 75 19 79 3 154 -104 506 -21 66 -40 148 -43 183 l-6 63 49 47 c28 26
127 100 222 165 302 207 372 296 312 394 -44 74 -123 90 -481 102 -318 10
-323 11 -361 97 -15 33 -54 151 -88 263 -88 291 -130 375 -207 407 -39 17 -50
17 -88 0z"/>
<!-- <path d="M1166 2811 c-65 -43 -104 -121 -200 -401 -38 -107 -80 -217 -94 -245
-43 -80 -45 -80 -365 -77 -293 3 -375 -4 -438 -40 -41 -23 -69 -64 -69 -102 0
-81 73 -162 310 -341 96 -73 195 -154 220 -179 41 -43 44 -49 42 -96 -1 -27
-22 -108 -48 -182 -25 -73 -64 -187 -86 -253 -69 -203 -62 -315 22 -358 68
-35 168 2 353 130 228 158 295 201 340 218 l47 18 53 -28 c30 -15 130 -85 223
-157 197 -152 279 -203 351 -218 46 -10 58 -9 90 7 99 48 98 155 -7 493 -59
190 -84 302 -76 335 9 35 97 109 267 225 264 180 329 247 329 338 0 36 -6 50
-33 77 -56 56 -110 66 -392 75 -339 12 -362 15 -401 54 -33 33 -32 29 -159
438 -64 205 -124 288 -208 288 -25 0 -54 -8 -71 -19z m134 -176 c15 -33 53
-148 85 -255 64 -218 108 -321 153 -364 51 -47 110 -57 402 -66 365 -11 419
-25 365 -95 -34 -46 -86 -86 -277 -218 -179 -124 -240 -174 -275 -231 -40 -63
-30 -151 50 -417 91 -299 104 -389 58 -389 -39 0 -130 57 -306 191 -104 78
-218 158 -253 176 -119 62 -179 44 -421 -125 -245 -172 -313 -212 -361 -212
-48 0 -29 107 67 374 123 342 123 395 1 512 -29 28 -125 106 -213 172 -170
127 -269 221 -263 250 7 35 67 42 396 45 307 2 318 3 359 24 44 24 89 80 118
148 9 22 46 123 81 225 72 207 112 298 144 330 21 21 22 21 42 3 12 -10 33
-45 48 -78z"/>
<path d="M3739 2793 c-55 -50 -95 -134 -175 -364 -36 -107 -79 -220 -95 -251
-48 -96 -35 -93 -399 -93 -348 0 -378 -4 -436 -58 -67 -62 -53 -140 44 -240
26 -27 126 -108 222 -181 96 -74 197 -157 224 -185 47 -51 48 -53 41 -99 -7
-49 -43 -162 -113 -362 -94 -264 -94 -376 -2 -423 76 -39 180 6 445 192 88 62
188 126 222 143 63 31 63 31 106 14 24 -9 137 -87 252 -174 212 -159 265 -192
349 -213 39 -10 50 -9 83 7 86 43 95 160 28 384 -21 69 -53 177 -72 240 -19
63 -35 139 -36 169 -2 52 -1 54 49 100 28 25 129 100 225 166 266 182 350 279
318 364 -34 88 -137 121 -380 121 -187 1 -382 16 -416 32 -42 20 -75 92 -138
302 -111 373 -154 446 -264 446 -33 0 -49 -7 -82 -37z m139 -131 c17 -32 49
-120 72 -197 121 -409 152 -466 271 -495 24 -6 163 -15 309 -20 333 -10 410
-26 381 -77 -21 -39 -103 -107 -271 -222 -212 -147 -277 -202 -301 -255 -35
-76 -23 -153 70 -453 75 -242 88 -343 42 -343 -39 0 -144 66 -311 195 -96 75
-207 152 -247 172 -126 62 -176 46 -457 -152 -247 -173 -344 -218 -347 -162
-4 60 9 111 88 347 98 290 110 358 75 426 -28 55 -111 131 -297 271 -169 127
-259 212 -253 241 7 35 67 42 396 45 350 3 363 5 416 68 42 49 68 108 141 319
95 275 142 368 179 354 8 -3 28 -31 44 -62z"/>
<path d="M6330 2793 c-53 -47 -101 -148 -180 -378 -74 -214 -105 -282 -143
-310 -27 -19 -42 -20 -350 -20 -283 -1 -327 -3 -367 -18 -58 -23 -88 -52 -102
-98 -10 -34 -8 -44 16 -93 33 -68 96 -126 302 -281 178 -134 240 -191 250
-230 9 -36 -12 -117 -94 -350 -38 -110 -75 -231 -82 -268 -21 -116 5 -194 75
-217 77 -26 169 17 428 196 221 154 273 180 321 164 37 -12 139 -82 324 -224
194 -148 293 -192 365 -162 55 22 77 66 77 151 0 84 -12 136 -85 370 -36 114
-58 207 -62 253 l-6 73 49 47 c28 26 127 100 222 165 94 65 198 142 231 173
105 97 125 179 58 241 -58 54 -146 73 -346 73 -188 1 -384 15 -418 32 -41 19
-81 111 -148 338 -96 328 -146 410 -252 410 -35 0 -50 -7 -83 -37z m123 -100
c34 -55 59 -124 122 -336 62 -208 85 -266 121 -315 54 -71 152 -92 422 -92
251 0 377 -19 390 -58 8 -25 -120 -134 -293 -253 -205 -140 -256 -185 -286
-245 -36 -75 -23 -147 84 -494 61 -196 72 -291 34 -298 -34 -7 -122 47 -320
196 -108 82 -222 161 -251 175 -118 58 -174 36 -506 -198 -132 -92 -229 -145
-269 -145 -23 0 -24 2 -19 68 5 66 25 131 124 412 53 151 68 264 42 313 -26
51 -113 130 -289 263 -179 135 -272 224 -267 253 7 35 72 42 369 41 176 0 306
4 338 11 105 22 146 85 250 386 38 109 79 219 90 245 23 50 67 108 82 108 5 0
19 -17 32 -37z"/>
<path d="M8923 2795 c-53 -45 -96 -135 -173 -360 -73 -212 -115 -302 -153
-330 -27 -19 -43 -20 -350 -20 -248 -1 -330 -4 -357 -14 -126 -49 -148 -135
-65 -244 38 -50 108 -109 322 -271 79 -59 157 -124 174 -144 28 -34 30 -42 25
-90 -2 -29 -32 -132 -67 -230 -120 -345 -135 -418 -101 -494 14 -32 29 -49 57
-62 70 -33 155 -3 330 116 61 41 157 107 214 146 57 40 124 79 148 88 43 17
44 17 101 -13 31 -16 142 -93 246 -172 259 -197 359 -239 433 -185 87 64 77
170 -53 584 -20 63 -39 146 -41 183 l-6 68 46 43 c24 24 123 97 218 162 267
184 351 273 335 359 -18 95 -132 135 -387 135 -187 1 -382 16 -415 32 -43 20
-66 72 -144 328 -103 339 -153 420 -256 420 -32 0 -49 -7 -81 -35z m127 -111
c27 -43 41 -82 140 -404 23 -74 55 -160 71 -191 58 -117 96 -128 459 -139 299
-9 380 -22 380 -60 0 -30 -88 -109 -237 -210 -357 -245 -385 -281 -349 -456 9
-44 40 -158 70 -255 61 -199 79 -278 74 -329 -3 -32 -5 -35 -35 -34 -42 2
-126 54 -286 178 -231 179 -295 216 -371 216 -61 0 -157 -51 -346 -183 -183
-129 -284 -187 -325 -187 l-28 0 5 64 c4 45 32 143 92 319 71 209 87 265 88
318 2 112 -32 152 -294 350 -90 68 -182 141 -206 163 -46 43 -77 90 -67 106
15 25 100 32 370 31 322 -2 369 4 424 55 49 44 85 120 166 354 37 107 79 218
92 245 26 52 60 95 75 95 5 0 22 -21 38 -46z"/>
<path d="M11519 2800 c-52 -42 -106 -155 -184 -380 -76 -221 -114 -301 -153
-321 -21 -11 -96 -14 -337 -14 -345 0 -383 -5 -441 -60 -28 -27 -34 -39 -34
-75 0 -94 59 -160 322 -358 97 -73 192 -150 212 -172 53 -59 50 -84 -48 -371
-119 -349 -128 -425 -56 -494 26 -25 39 -29 83 -29 72 0 166 48 352 179 179
126 254 173 297 186 56 16 100 -10 397 -239 214 -165 329 -196 399 -108 50 64
40 151 -54 462 -36 121 -68 247 -71 281 l-6 61 46 44 c25 25 88 73 139 108
278 190 369 265 401 333 49 103 -17 181 -175 207 -34 5 -124 10 -198 10 -201
1 -382 15 -417 34 -42 21 -71 88 -143 332 -70 236 -106 320 -161 375 -34 34
-45 39 -87 39 -38 0 -55 -6 -83 -30z m118 -109 c30 -44 55 -113 120 -331 30
-102 70 -217 89 -257 63 -132 92 -142 464 -153 373 -12 414 -24 360 -101 -23
-32 -147 -126 -325 -247 -66 -45 -141 -102 -167 -127 -113 -108 -111 -158 13
-555 40 -131 51 -181 53 -240 1 -64 -1 -75 -17 -78 -33 -7 -112 42 -312 193
-110 83 -225 163 -254 178 -113 56 -181 32 -452 -158 -176 -124 -288 -188
-321 -183 -21 3 -23 8 -22 63 1 60 16 111 118 400 25 72 51 163 57 202 12 68
12 72 -15 126 -30 63 -85 115 -256 242 -58 43 -138 105 -178 138 -75 61 -129
128 -118 146 16 26 98 33 371 32 322 -2 369 4 424 55 53 47 81 104 157 324 77
225 105 291 140 338 30 38 41 37 71 -7z"/> -->
</g>
</svg>
